<svg width="32" height="40" viewBox="0 0 32 40" fill="none" xmlns="http://www.w3.org/2000/svg">
<g clip-path="url(#clip0_82_908)">
<path fill-rule="evenodd" clip-rule="evenodd" d="M9.99745 30.6667C2.75632 28.7067 1.66057 24.24 5.73835 19.5147L3.44769 16C-3.47905 23.2934 0.708303 30.372 9.97005 30.6667H9.99745ZM30.2168 16.9614C32.1735 24.3547 28.9123 27.5534 22.8974 26.2947L21.0711 30.076C30.6799 32.5627 34.5946 25.336 30.2024 16.9574L30.2168 16.9614ZM8.4386 5.93337C13.7217 0.506701 18.0604 1.77337 20.0249 7.73337L24.1601 7.4667C21.4403 -2.30663 13.3447 -2.1333 8.45817 5.93337H8.4386Z" fill="#252994"/>
<path d="M9.99745 30.6667C2.75632 28.7067 1.66057 24.24 5.73835 19.5147L3.44769 16C-3.47905 23.2934 0.708303 30.372 9.97005 30.6667H9.99745ZM30.2168 16.9614C32.1735 24.3547 28.9123 27.5534 22.8974 26.2947L21.0711 30.076C30.6799 32.5627 34.5946 25.336 30.2024 16.9574L30.2168 16.9614ZM8.4386 5.93337C13.7217 0.506701 18.0604 1.77337 20.0249 7.73337L24.1601 7.4667C21.4403 -2.30663 13.3447 -2.1333 8.45817 5.93337H8.4386Z" fill="#252994"/>
<path fill-rule="evenodd" clip-rule="evenodd" d="M18.8706 33.2107L18.3358 32.8507C14.8302 30.5202 11.6707 27.6868 8.95399 24.4373C6.01426 20.9627 3.65821 17.0141 1.98159 12.752L1.90332 12.56L2.25553 12.38C5.94048 10.4399 9.87619 9.0442 13.9449 8.23467C18.5371 7.29691 23.2531 7.17512 27.8858 7.87467L27.8467 8.54133C27.6286 12.7033 26.8427 16.8137 25.5117 20.7533C24.0096 25.2692 21.7593 29.4875 18.8588 33.224L18.8706 33.2107ZM21.036 30.0787L20.5273 29.872C17.2239 28.5739 14.1198 26.798 11.3099 24.5987C8.28295 22.2415 5.65742 19.3898 3.53913 16.1587L3.4426 16.0147L3.70349 15.8C6.42374 13.5299 9.44603 11.6668 12.6796 10.2667C16.3207 8.66972 20.2041 7.727 24.1589 7.48C24.1915 7.66667 24.2189 7.84667 24.245 8.03333C24.7761 11.5167 24.8306 15.0586 24.4068 18.5573C23.9341 22.5654 22.7936 26.4613 21.0347 30.076L21.036 30.0787Z" fill="#D4D5D7"/>
<path fill-rule="evenodd" clip-rule="evenodd" d="M11.7663 12.3187H15.8754C16.3236 12.3967 16.7476 12.5808 17.1137 12.8563C17.4797 13.1318 17.7776 13.4911 17.9835 13.9053C18.1385 14.2795 18.1987 14.6877 18.1583 15.092C18.1128 15.5124 17.9726 15.9163 17.7487 16.272C17.4598 16.706 17.0704 17.0603 16.6153 17.3034C16.1601 17.5464 15.6532 17.6708 15.1397 17.6653C14.4157 17.532 14.0505 18.332 14.6636 18.9253L18.7844 22.8307H11.7663C11.7159 22.8317 11.6657 22.8226 11.6187 22.8038C11.5717 22.785 11.5287 22.7569 11.4924 22.7211C11.456 22.6853 11.4269 22.6425 11.4068 22.5952C11.3867 22.5478 11.3758 22.4969 11.375 22.4453V12.712C11.3767 12.6071 11.4187 12.507 11.4919 12.4335C11.5651 12.3599 11.6637 12.3187 11.7663 12.3187ZM18.654 12.3187H21.516C21.6162 12.3203 21.712 12.3612 21.7836 12.4329C21.8552 12.5046 21.8971 12.6016 21.9008 12.704V22.4453C21.8971 22.5477 21.8552 22.6448 21.7836 22.7165C21.712 22.7881 21.6162 22.829 21.516 22.8307H20.8637L16.6699 18.8307C17.6002 18.5226 18.4005 17.9006 18.9396 17.0667C19.2944 16.5186 19.5178 15.8928 19.5919 15.24C19.6604 14.5868 19.562 13.9266 19.3062 13.324C19.1415 12.9557 18.9215 12.616 18.654 12.3173V12.3187Z" fill="#252994"/>
<path d="M11.7663 12.3187H15.8754C16.3236 12.3967 16.7476 12.5808 17.1137 12.8563C17.4797 13.1318 17.7776 13.4911 17.9835 13.9053C18.1385 14.2795 18.1987 14.6877 18.1583 15.092C18.1128 15.5124 17.9726 15.9163 17.7487 16.272C17.4598 16.706 17.0704 17.0603 16.6153 17.3034C16.1601 17.5464 15.6532 17.6708 15.1397 17.6653C14.4157 17.532 14.0505 18.332 14.6636 18.9253L18.7844 22.8307H11.7663C11.7159 22.8317 11.6657 22.8226 11.6187 22.8038C11.5717 22.785 11.5287 22.7569 11.4924 22.7211C11.456 22.6853 11.4269 22.6425 11.4068 22.5952C11.3867 22.5478 11.3758 22.4969 11.375 22.4453V12.712C11.3767 12.6071 11.4187 12.507 11.4919 12.4335C11.5651 12.3599 11.6637 12.3187 11.7663 12.3187ZM18.654 12.3187H21.516C21.6162 12.3203 21.712 12.3612 21.7836 12.4329C21.8552 12.5046 21.8971 12.6016 21.9008 12.704V22.4453C21.8971 22.5477 21.8552 22.6448 21.7836 22.7165C21.712 22.7881 21.6162 22.829 21.516 22.8307H20.8637L16.6699 18.8307C17.6002 18.5226 18.4005 17.9006 18.9396 17.0667C19.2944 16.5186 19.5178 15.8928 19.5919 15.24C19.6604 14.5868 19.562 13.9266 19.3062 13.324C19.1415 12.9557 18.9215 12.616 18.654 12.3173V12.3187Z" fill="#252994"/>
<path fill-rule="evenodd" clip-rule="evenodd" d="M3.25195 39.8373V33.9773H5.1317V39.8373H3.25195Z" fill="#252994"/>
<path fill-rule="evenodd" clip-rule="evenodd" d="M8.06973 36.4907H8.91112C9.1203 36.5093 9.33043 36.4678 9.5177 36.3707C9.57625 36.3195 9.62171 36.2545 9.65012 36.1813C9.67853 36.1081 9.68905 36.029 9.68075 35.9507C9.6903 35.8708 9.68094 35.7898 9.65348 35.7144C9.62601 35.6389 9.58123 35.5714 9.52291 35.5173C9.32023 35.4174 9.09472 35.3759 8.87068 35.3973H8.07495L8.06973 36.4907ZM6.25391 39.824V34H8.9933C9.63153 33.9458 10.2712 34.085 10.8326 34.4C11.0251 34.5495 11.1771 34.7467 11.2741 34.9731C11.3712 35.1994 11.41 35.4473 11.387 35.6933C11.3979 36.0054 11.3185 36.3138 11.1587 36.58C10.9884 36.836 10.7446 37.0317 10.4608 37.14C10.7361 37.183 10.9854 37.3306 11.1587 37.5533C11.3243 37.8173 11.4067 38.1267 11.3948 38.44V39.2587C11.3948 39.492 11.4601 39.612 11.5579 39.6267V39.8453H9.70554C9.69253 39.7184 9.66629 39.5932 9.62727 39.472C9.61944 39.3918 9.61944 39.3109 9.62727 39.2307V38.6667C9.65577 38.4295 9.59258 38.1903 9.45117 38C9.28075 37.8589 9.06291 37.7918 8.84459 37.8133H8.0619V39.8133L6.25391 39.824Z" fill="#252994"/>
<path fill-rule="evenodd" clip-rule="evenodd" d="M16.0515 37.5627H17.7995C17.7879 37.8988 17.7097 38.2291 17.5696 38.5335C17.4294 38.8378 17.2303 39.1099 16.9842 39.3333C16.4362 39.7972 15.7383 40.035 15.0275 40C14.6291 40.0223 14.2305 39.9604 13.8566 39.8181C13.4827 39.6759 13.1415 39.4564 12.8543 39.1733C12.5813 38.8699 12.3708 38.5134 12.2353 38.1252C12.0997 37.737 12.0418 37.3249 12.0651 36.9133C12.0489 36.5029 12.112 36.0932 12.2508 35.7078C12.3895 35.3223 12.6013 34.9685 12.8738 34.6667C13.155 34.3799 13.4921 34.1569 13.8631 34.0122C14.2342 33.8675 14.631 33.8043 15.0275 33.8267C15.7304 33.7865 16.4242 34.004 16.9842 34.44C17.2263 34.6617 17.4218 34.9316 17.5586 35.233C17.6954 35.5344 17.7707 35.8612 17.78 36.1933H16.0189C16.0196 36.0743 15.9973 35.9562 15.9534 35.846C15.9095 35.7357 15.8447 35.6353 15.7628 35.5507C15.6809 35.466 15.5835 35.3986 15.4762 35.3524C15.3688 35.3062 15.2536 35.282 15.1371 35.2813C15.1006 35.2787 15.064 35.2787 15.0275 35.2813C14.8687 35.2706 14.71 35.3025 14.567 35.3739C14.424 35.4452 14.3017 35.5535 14.2122 35.688C14.0093 36.0594 13.9186 36.4839 13.9513 36.908C13.9207 37.3289 14.0212 37.749 14.2383 38.108C14.3331 38.2438 14.4599 38.3529 14.607 38.4252C14.7541 38.4975 14.9167 38.5305 15.0797 38.5213C15.3211 38.5272 15.5552 38.4362 15.7319 38.268C15.912 38.0752 16.0161 37.8211 16.0241 37.5547L16.0515 37.5627Z" fill="#252994"/>
<path fill-rule="evenodd" clip-rule="evenodd" d="M19.776 39.8373V35.5173H18.1323V33.9747H23.2472V35.5173H21.6296V39.8373H19.776Z" fill="#252994"/>
<path fill-rule="evenodd" clip-rule="evenodd" d="M27.5858 37.564H29.3273C29.319 37.8981 29.2442 38.2269 29.1074 38.5304C28.9705 38.834 28.7746 39.1058 28.5316 39.3293C27.9246 39.7754 27.1885 39.9997 26.4417 39.966C25.6949 39.9324 24.9809 39.6429 24.4147 39.144C23.9064 38.5054 23.6289 37.7073 23.6289 36.884C23.6289 36.0607 23.9064 35.2626 24.4147 34.624C24.6948 34.3424 25.0292 34.1235 25.3966 33.9812C25.7641 33.8389 26.1564 33.7763 26.5488 33.7973C27.252 33.7543 27.9468 33.9721 28.5055 34.4107C28.7496 34.6311 28.9468 34.9005 29.0848 35.2021C29.2228 35.5038 29.2987 35.8312 29.3077 36.164H27.5402C27.5326 35.9132 27.4318 35.6749 27.2584 35.4973C27.0659 35.3315 26.8183 35.248 26.567 35.264C26.4099 35.2538 26.2529 35.2852 26.1112 35.3553C25.9695 35.4254 25.8479 35.5317 25.7583 35.664C25.5509 36.034 25.4555 36.4586 25.4843 36.884C25.4594 37.3044 25.5594 37.7227 25.7713 38.084C25.8682 38.2196 25.9965 38.3283 26.1448 38.4005C26.293 38.4726 26.4565 38.5059 26.6205 38.4973C26.8617 38.5014 27.0951 38.4107 27.2728 38.244C27.4527 38.051 27.5571 37.7971 27.5663 37.5307L27.5858 37.564Z" fill="#252994"/>
</g>
<defs>
<clipPath id="clip0_82_908">
<rect width="32" height="40" fill="white"/>
</clipPath>
</defs>
</svg>
